<?xml version="1.0" encoding="UTF-8" standalone="no"?>
<svg
   xmlns:dc="http://purl.org/dc/elements/1.1/"
   xmlns:cc="http://creativecommons.org/ns#"
   xmlns:rdf="http://www.w3.org/1999/02/22-rdf-syntax-ns#"
   xmlns:svg="http://www.w3.org/2000/svg"
   xmlns="http://www.w3.org/2000/svg"
   xmlns:sodipodi="http://sodipodi.sourceforge.net/DTD/sodipodi-0.dtd"
   xmlns:inkscape="http://www.inkscape.org/namespaces/inkscape"
   viewBox="0 0 700 700"
   id="icon-logo"
   version="1.1"
   sodipodi:docname="ingresso-com-logo.svg"
   width="700"
   height="700"
   inkscape:version="0.92.4 (5da689c313, 2019-01-14)"
   inkscape:export-filename="C:\Users\suitedoalex\sites\ingresso-com-logo-0.png"
   inkscape:export-xdpi="561.73712"
   inkscape:export-ydpi="561.73712">
  <metadata
     id="metadata17">
    <rdf:RDF>
      <cc:Work
         rdf:about="">
        <dc:format>image/svg+xml</dc:format>
        <dc:type
           rdf:resource="http://purl.org/dc/dcmitype/StillImage" />
        <dc:title>logo</dc:title>
      </cc:Work>
    </rdf:RDF>
  </metadata>
  <defs
     id="defs15" />
  <sodipodi:namedview
     pagecolor="#ffffff"
     bordercolor="#666666"
     borderopacity="1"
     objecttolerance="10"
     gridtolerance="10"
     guidetolerance="10"
     inkscape:pageopacity="0"
     inkscape:pageshadow="2"
     inkscape:window-width="1600"
     inkscape:window-height="837"
     id="namedview13"
     showgrid="false"
     inkscape:zoom="0.65748032"
     inkscape:cx="328.06846"
     inkscape:cy="368.05058"
     inkscape:window-x="-8"
     inkscape:window-y="-8"
     inkscape:window-maximized="1"
     inkscape:current-layer="icon-logo" />
  <title
     id="title2">logo</title>
  <g
     id="logo-header"
     transform="matrix(2.0623072,0,0,2.0623072,89.015024,307.10401)"
     inkscape:export-filename="C:\Users\suitedoalex\sites\ingresso-com-logo-4.png"
     inkscape:export-xdpi="73.567451"
     inkscape:export-ydpi="73.567451">
    <g
       id="logo-logo-completo"
       transform="translate(10,11)">
      <path
         id="logo-Fill-42"
         class="lt0"
         d="M 24.5,1.1 21.5,-10 -10,-1.6 -7,9.5 v 0 c 1.9,0.4 3.5,1.8 4,3.8 0.5,2 -0.2,4 -1.6,5.2 v 0 l 3,11.1 31.5,-8.4 -3,-11.1 C 25,9.7 23.4,8.3 22.9,6.3 22.4,4.3 23,2.4 24.5,1.1"
         style="fill:#ff7300;fill-opacity:1"
         inkscape:connector-curvature="0" />
      <path
         id="logo-Combined-Shape"
         class="lt1"
         d="m 38.1,21 h 4.5 V 4 H 38.1 Z M 37.6,-0.6 c 0,-1.5 1.2,-2.6 2.7,-2.6 1.5,0 2.7,1.2 2.7,2.6 0,1.5 -1.2,2.7 -2.7,2.7 -1.5,0 -2.7,-1.2 -2.7,-2.7 z m 20,19.5 v -8.2 c 0,-1.8 -0.1,-3 -3.1,-3 -1.8,0 -3.8,1.1 -3.9,2.3 V 21 H 46.1 V 4 h 4.5 v 1.5 c 1.1,-1.3 4.1,-2 6,-1.9 3.8,0.3 5.6,2.1 5.6,5.4 v 12 h -2.5 c -1.2,0 -2.1,-1 -2.1,-2.1 m 29,2.1 V 4 h 4.5 V 5.7 C 92.3,4.2 94.4,3.6 96.5,3.6 V 8 C 96.2,7.9 95.8,7.9 95.3,7.9 93.8,7.9 91.8,9 91.1,10.1 V 21 Z M 106.9,7.2 c -2.8,0 -4,1.9 -4.2,3.6 h 8.4 C 111,9.2 109.9,7.2 106.9,7.2 M 98,12.5 c 0,-4.9 3.7,-8.9 8.8,-8.9 4.8,0 8.1,3.4 8.5,8.4 0,1.5 -1.4,2 -2,2 h -10.6 c 0.3,2.1 2,3.8 4.9,3.8 1.4,0 3.4,-0.6 4.5,-1.7 l 2,3 c -1.7,1.6 -4.4,2.4 -7,2.4 C 102,21.4 98,17.9 98,12.5 m 18.6,6.3 1.9,-3.2 c 1.3,1.2 3.8,2.4 5.9,2.4 1.9,0 2.9,-0.7 2.9,-1.8 0,-2.8 -10.1,-0.5 -10.1,-7.2 0,-2.9 2.5,-5.4 7,-5.4 2.9,0 5.2,1 6.9,2.3 L 129.2,9 c -1,-1.1 -3,-2 -5.1,-2 -1.6,0 -2.7,0.7 -2.7,1.7 0,2.5 10.1,0.4 10.1,7.3 0,3.1 -2.7,5.4 -7.4,5.4 -2.8,0 -5.7,-1 -7.5,-2.6 m 16.5,0 1.9,-3.2 c 1.3,1.2 3.8,2.4 5.9,2.4 1.9,0 2.9,-0.7 2.9,-1.8 0,-2.8 -10.1,-0.5 -10.1,-7.2 0,-2.9 2.5,-5.4 7,-5.4 2.9,0 5.2,1 6.9,2.3 L 145.8,9 c -1,-1.1 -3,-2 -5.1,-2 -1.6,0 -2.7,0.7 -2.7,1.7 0,2.5 10.1,0.4 10.1,7.3 0,3.1 -2.7,5.4 -7.4,5.4 -2.9,0 -5.8,-1 -7.6,-2.6 m 37.8,-0.3 c 0,-1.6 1.3,-2.9 2.9,-2.9 1.6,0 2.9,1.3 2.9,2.9 0,1.6 -1.3,2.9 -2.9,2.9 -1.6,0 -2.9,-1.3 -2.9,-2.9 m 8.6,-6 c 0,-5.2 3.8,-8.9 9.1,-8.9 3.5,0 5.6,1.5 6.8,3.1 l -2.9,2.7 c -0.8,-1.2 -2,-1.8 -3.6,-1.8 -2.7,0 -4.6,2 -4.6,4.9 0,3 1.9,5 4.6,5 1.6,0 2.8,-0.7 3.6,-1.9 l 2.9,2.7 c -1.1,1.5 -3.3,3.1 -6.8,3.1 -5.3,0 -9.1,-3.7 -9.1,-8.9 m 59.1,6.4 v -8.7 c 0,-1.6 -0.7,-2.7 -2.5,-2.7 -1.6,0 -3.1,1.3 -3.6,2.4 V 21 H 230 c -0.9,0 -2,-0.8 -2,-2 v -8.7 c 0,-1.6 -0.7,-2.7 -2.5,-2.7 -1.6,0 -3.2,1.3 -3.6,2.4 v 11.1 h -4.5 V 4 h 4.5 v 1.6 c 0.7,-1 3,-2 5.6,-2 2.5,0 4.1,0.6 4.7,2.5 1,-1.5 3.3,-2.5 5.9,-2.5 3.1,0 5,1.7 5,5.1 V 21 h -2.5 c -0.7,0 -2,-0.8 -2,-2.1 m -74.2,-6.3 c -0.1,1.2 -0.6,2.3 -1.3,3.1 -0.1,0.1 -0.2,0.2 -0.3,0.3 -0.9,0.8 -2.1,1.4 -3.5,1.4 -2.8,0 -5.1,-2.3 -5.1,-5 0,-2.7 2.3,-5 5.1,-5 2.7,0 4.9,2.1 5,4.7 v 0.5 z m -5.1,-9.2 c -5.3,0 -9.2,3.6 -9.2,8.8 0,5.2 3.9,8.8 9.2,8.8 5.3,0 9.2,-3.6 9.2,-8.8 0,-5.1 -3.9,-8.8 -9.2,-8.8 z m 51.3,9.2 c -0.1,1.2 -0.6,2.3 -1.3,3.1 -0.1,0.1 -0.2,0.2 -0.3,0.3 -0.9,0.8 -2.1,1.4 -3.5,1.4 -2.8,0 -5.1,-2.3 -5.1,-5 0,-2.7 2.3,-5 5.1,-5 2.7,0 4.9,2.1 5,4.7 v 0.5 z m -5.1,-9.2 c -5.3,0 -9.2,3.6 -9.2,8.8 0,5.2 4,8.8 9.2,8.8 5.2,0 9.2,-3.6 9.2,-8.8 0,-5.1 -3.9,-8.8 -9.2,-8.8 z M 77.6,15.9 c 0,0 0,0 0,0 0,0.1 0,0.1 0,0 -1,1.1 -2.3,1.7 -3.8,1.7 -0.7,0 -1.4,-0.2 -2,-0.4 -1.8,-0.8 -3.1,-2.6 -3.1,-4.6 0,-2.8 2.3,-5 5.1,-5 1.4,0 2.6,0.6 3.5,1.5 0.1,0.1 0.1,0.1 0.2,0.2 0.1,0.1 0.2,0.3 0.3,0.4 0.1,0.1 0.2,0.3 0.3,0.4 0,0.1 0.1,0.2 0.1,0.3 0.4,0.7 0.6,1.5 0.6,2.4 0.1,1.1 -0.4,2.2 -1.2,3.1 M 81,4 C 80.7,4 78.5,4 78.5,4 V 4.9 C 77.1,4.2 75.6,3.8 73.8,3.8 c -5.3,0 -9.2,3.6 -9.2,8.8 0,5.2 4,8.8 9.2,8.8 1.7,0 3.3,-0.4 4.7,-1.1 -0.2,3.1 -2.7,3.9 -4.7,3.9 -2.1,0 -4,-0.6 -5.3,-2.1 L 66,25.8 c 2.2,1.9 5.1,2.9 8,2.9 4.2,0 9.1,-2.4 9.1,-8.9 V 6 C 83,4.8 82,4 81,4"
         style="fill:#3478c1;fill-opacity:1"
         inkscape:connector-curvature="0" />
    </g>
  </g>
  <path
     class="lt2"
     d="m 138.5104,329.1707 c 0,4.7433 -3.71215,8.45546 -8.45546,8.45546 -4.74331,0 -8.45545,-3.91839 -8.45545,-8.45546 0,-4.74331 3.71214,-8.45546 8.45545,-8.45546 4.74331,-0.20623 8.45546,3.71215 8.45546,8.45546"
     id="path8"
     style="fill:#ffffff;stroke-width:2.06230712"
     inkscape:connector-curvature="0"
     inkscape:export-filename="C:\Users\suitedoalex\sites\ingresso-com-logo-4.png"
     inkscape:export-xdpi="73.567451"
     inkscape:export-ydpi="73.567451" />
  <path
     class="lt2"
     d="m 137.89171,341.33831 h -15.4673 v 32.37822 c 0,2.47477 1.64984,4.33085 3.91838,4.33085 h 11.54892 z"
     id="path10"
     style="fill:#ffffff;stroke-width:2.06230712"
     inkscape:connector-curvature="0"
     inkscape:export-filename="C:\Users\suitedoalex\sites\ingresso-com-logo-4.png"
     inkscape:export-xdpi="73.567451"
     inkscape:export-ydpi="73.567451" />
</svg>
